HIERARCHY
ROOT hips
{
  OFFSET 0 9.313263304106702 1.2146308026317778
  CHANNELS 6 Xposition Yposition Zposition Yrotation Xrotation Zrotation
  JOINT spine
  {
    OFFSET -6.402521e-31 0.5173342420023708 0
    CHANNELS 3 Yrotation Xrotation Zrotation
    JOINT chest
    {
      OFFSET 0 1.130544299341115 0
      CHANNELS 3 Yrotation Xrotation Zrotation
      JOINT upperChest
      {
        OFFSET 0 1.0863555061129995 0
        CHANNELS 3 Yrotation Xrotation Zrotation
        JOINT neck
        {
          OFFSET 0 1.3773706506454462 0
          CHANNELS 3 Yrotation Xrotation Zrotation
          JOINT head
          {
            OFFSET 0 0.7374408940073979 0
            CHANNELS 3 Yrotation Xrotation Zrotation
            JOINT leftEye
            {
              OFFSET 0.25066580148932727 0.6408406698778757 0.15963719178883284
              CHANNELS 3 Yrotation Xrotation Zrotation
              End Site
              {
                OFFSET 0.25066580148932727 0.6408406698778757 0.15963719178883284
              }
            }
            JOINT rightEye
            {
              OFFSET -0.25066576739704244 0.6408406384191823 0.15963727561643756
              CHANNELS 3 Yrotation Xrotation Zrotation
              End Site
              {
                OFFSET -0.25066576739704244 0.6408406384191823 0.15963727561643756
              }
            }
          }
        }
        JOINT leftShoulder
        {
          OFFSET 0.3761817444281191 1.0539491987447769 0
          CHANNELS 3 Yrotation Xrotation Zrotation
          JOINT leftUpperArm
          {
            OFFSET 0.8702844380000002 0 0
            CHANNELS 3 Yrotation Xrotation Zrotation
            JOINT leftLowerArm
            {
              OFFSET 2.198527310000323 0 0
              CHANNELS 3 Yrotation Xrotation Zrotation
              JOINT leftHand
              {
                OFFSET 2.146852313968281 0 0
                CHANNELS 3 Yrotation Xrotation Zrotation
                JOINT leftIndexProximal
                {
                  OFFSET 0.6585177834681599 0.07380250427007962 0.18382213159631788
                  CHANNELS 3 Yrotation Xrotation Zrotation
                  JOINT leftIndexIntermediate
                  {
                    OFFSET 0.3323021288626682 -0.009606893929485771 -0.012820872253340998
                    CHANNELS 3 Yrotation Xrotation Zrotation
                    JOINT leftIndexDistal
                    {
                      OFFSET 0.2045908926985518 -0.0071133989147997845 -0.006828784783599051
                      CHANNELS 3 Yrotation Xrotation Zrotation
                      End Site
                      {
                        OFFSET 0.2045908926985518 -0.0071133989147997845 -0.006828784783599051
                      }
                    }
                  }
                }
                JOINT leftLittleProximal
                {
                  OFFSET 0.6110054258835662 0.07380246363125398 -0.29175655876064077
                  CHANNELS 3 Yrotation Xrotation Zrotation
                  JOINT leftLittleIntermediate
                  {
                    OFFSET 0.3144281999999998 -2.5124724523095665e-9 1.8658118799974588e-7
                    CHANNELS 3 Yrotation Xrotation Zrotation
                    JOINT leftLittleDistal
                    {
                      OFFSET 0.18116185580251631 0.002815456192251098 0.0034826415518049436
                      CHANNELS 3 Yrotation Xrotation Zrotation
                      End Site
                      {
                        OFFSET 0.18116185580251631 0.002815456192251098 0.0034826415518049436
                      }
                    }
                  }
                }
                JOINT leftMiddleProximal
                {
                  OFFSET 0.6637478005691111 0.07380246480054087 0.02046981859247815
                  CHANNELS 3 Yrotation Xrotation Zrotation
                  JOINT leftMiddleIntermediate
                  {
                    OFFSET 0.3705733999999994 -2.9611069152224445e-9 9.35054791928458e-8
                    CHANNELS 3 Yrotation Xrotation Zrotation
                    JOINT leftMiddleDistal
                    {
                      OFFSET 0.22861063500000056 -1.82673876025774e-9 -1.6740782024515788e-7
                      CHANNELS 3 Yrotation Xrotation Zrotation
                      End Site
                      {
                        OFFSET 0.22861063500000056 -1.82673876025774e-9 -1.6740782024515788e-7
                      }
                    }
                  }
                }
                JOINT leftRingProximal
                {
                  OFFSET 0.6561845547265777 0.07380246406440083 -0.13588087571513918
                  CHANNELS 3 Yrotation Xrotation Zrotation
                  JOINT leftRingIntermediate
                  {
                    OFFSET 0.3437531000000005 -2.746796123886952e-9 1.4935781944558357e-7
                    CHANNELS 3 Yrotation Xrotation Zrotation
                    JOINT leftRingDistal
                    {
                      OFFSET 0.1983118991198174 -0.002467117924596085 -0.004538141969590015
                      CHANNELS 3 Yrotation Xrotation Zrotation
                      End Site
                      {
                        OFFSET 0.1983118991198174 -0.002467117924596085 -0.004538141969590015
                      }
                    }
                  }
                }
                JOINT leftThumbProximal
                {
                  OFFSET 0.09767004258864787 -0.14930060425447422 -0.07008212897521154
                  CHANNELS 3 Yrotation Xrotation Zrotation
                  JOINT leftThumbIntermediate
                  {
                    OFFSET 0.36682123028154767 -0.015768465060082004 0.28693641268151077
                    CHANNELS 3 Yrotation Xrotation Zrotation
                    JOINT leftThumbDistal
                    {
                      OFFSET 0.21091084272403915 -0.016756648201192714 0.1933767059105508
                      CHANNELS 3 Yrotation Xrotation Zrotation
                      End Site
                      {
                        OFFSET 0.21091084272403915 -0.016756648201192714 0.1933767059105508
                      }
                    }
                  }
                }
              }
            }
          }
        }
        JOINT rightShoulder
        {
          OFFSET -0.37618174442811925 1.0539491987447769 0
          CHANNELS 3 Yrotation Xrotation Zrotation
          JOINT rightUpperArm
          {
            OFFSET -0.870284438 0 0
            CHANNELS 3 Yrotation Xrotation Zrotation
            JOINT rightLowerArm
            {
              OFFSET -2.1985273100003235 0 0
              CHANNELS 3 Yrotation Xrotation Zrotation
              JOINT rightHand
              {
                OFFSET -2.1468523139682802 0 0
                CHANNELS 3 Yrotation Xrotation Zrotation
                JOINT rightIndexProximal
                {
                  OFFSET -0.6585177834681599 0.07380250427007962 0.18382213159631788
                  CHANNELS 3 Yrotation Xrotation Zrotation
                  JOINT rightIndexIntermediate
                  {
                    OFFSET -0.3323021288626682 -0.009606893929485771 -0.012820872253340998
                    CHANNELS 3 Yrotation Xrotation Zrotation
                    JOINT rightIndexDistal
                    {
                      OFFSET -0.2045908926985518 -0.0071133989147997845 -0.006828784783599051
                      CHANNELS 3 Yrotation Xrotation Zrotation
                      End Site
                      {
                        OFFSET -0.2045908926985518 -0.0071133989147997845 -0.006828784783599051
                      }
                    }
                  }
                }
                JOINT rightLittleProximal
                {
                  OFFSET -0.6110054258835662 0.07380246363125398 -0.29175655876064077
                  CHANNELS 3 Yrotation Xrotation Zrotation
                  JOINT rightLittleIntermediate
                  {
                    OFFSET -0.3144281999999998 -2.5124724523095665e-9 1.8658118799974588e-7
                    CHANNELS 3 Yrotation Xrotation Zrotation
                    JOINT rightLittleDistal
                    {
                      OFFSET -0.18116185580251631 0.002815456192251098 0.0034826415518049436
                      CHANNELS 3 Yrotation Xrotation Zrotation
                      End Site
                      {
                        OFFSET -0.18116185580251631 0.002815456192251098 0.0034826415518049436
                      }
                    }
                  }
                }
                JOINT rightMiddleProximal
                {
                  OFFSET -0.6637478005691111 0.07380246480054087 0.02046981859247815
                  CHANNELS 3 Yrotation Xrotation Zrotation
                  JOINT rightMiddleIntermediate
                  {
                    OFFSET -0.3705733999999994 -2.9611069152224445e-9 9.35054791928458e-8
                    CHANNELS 3 Yrotation Xrotation Zrotation
                    JOINT rightMiddleDistal
                    {
                      OFFSET -0.22861063500000056 -1.82673876025774e-9 -1.6740782024515788e-7
                      CHANNELS 3 Yrotation Xrotation Zrotation
                      End Site
                      {
                        OFFSET -0.22861063500000056 -1.82673876025774e-9 -1.6740782024515788e-7
                      }
                    }
                  }
                }
                JOINT rightRingProximal
                {
                  OFFSET -0.6561845547265777 0.07380246406440083 -0.13588087571513918
                  CHANNELS 3 Yrotation Xrotation Zrotation
                  JOINT rightRingIntermediate
                  {
                    OFFSET -0.3437531000000005 -2.746796123886952e-9 1.4935781944558357e-7
                    CHANNELS 3 Yrotation Xrotation Zrotation
                    JOINT rightRingDistal
                    {
                      OFFSET -0.1983118991198174 -0.002467117924596085 -0.004538141969590015
                      CHANNELS 3 Yrotation Xrotation Zrotation
                      End Site
                      {
                        OFFSET -0.1983118991198174 -0.002467117924596085 -0.004538141969590015
                      }
                    }
                  }
                }
                JOINT rightThumbProximal
                {
                  OFFSET -0.09767004258864787 -0.14930060425447422 -0.07008212897521154
                  CHANNELS 3 Yrotation Xrotation Zrotation
                  JOINT rightThumbIntermediate
                  {
                    OFFSET -0.36682123028154767 -0.015768465060082004 0.28693641268151077
                    CHANNELS 3 Yrotation Xrotation Zrotation
                    JOINT rightThumbDistal
                    {
                      OFFSET -0.21091084272403915 -0.016756648201192714 0.1933767059105508
                      CHANNELS 3 Yrotation Xrotation Zrotation
                      End Site
                      {
                        OFFSET -0.21091084272403915 -0.016756648201192714 0.1933767059105508
                      }
                    }
                  }
                }
              }
            }
          }
        }
      }
    }
  }
  JOINT leftUpperLeg
  {
    OFFSET 0.7715603 -0.3993844658041501 0
    CHANNELS 3 Yrotation Xrotation Zrotation
    JOINT leftLowerLeg
    {
      OFFSET 0 -3.529830000249343 0
      CHANNELS 3 Yrotation Xrotation Zrotation
      JOINT leftFoot
      {
        OFFSET 0 -4.154939295409685 0.004208579085223096
        CHANNELS 3 Yrotation Xrotation Zrotation
        JOINT leftToes
        {
          OFFSET 0 -0.6353414391261847 1.10414981190622
          CHANNELS 3 Yrotation Xrotation Zrotation
          End Site
          {
            OFFSET 0 -0.6015820691747853 1.10414981190622
          }
        }
      }
    }
  }
  JOINT rightUpperLeg
  {
    OFFSET -0.7715603 -0.3993844658041501 0
    CHANNELS 3 Yrotation Xrotation Zrotation
    JOINT rightLowerLeg
    {
      OFFSET 0 -3.529830000249343 0
      CHANNELS 3 Yrotation Xrotation Zrotation
      JOINT rightFoot
      {
        OFFSET 0 -4.154939295409685 0.004208579085223096
        CHANNELS 3 Yrotation Xrotation Zrotation
        JOINT rightToes
        {
          OFFSET 0 -0.6353414391261847 1.10414981190622
          CHANNELS 3 Yrotation Xrotation Zrotation
          End Site
          {
            OFFSET 0 -0.6015820691747853 1.10414981190622
          }
        }
      }
    }
  }
}
MOTION
Frames: 4
Frame Time: 0.03333333333333333
-0.05968649812401812 9.692789880084758 1.2931090397943725 0.2642894715409398 9.553887790933969 0.6165290583765526 -0.03412035522730291 -4.595872633205944 0.052218563365884894 -0.06821959186089008 -12.378638998152756 0.11372490302031378 0 0 0 -1.5165423373124036 -0.7947406193986388 -1.35414356691609 -1.374318980581644 1.770037121620218 -1.2561719520625523 0 0 0 0 0 0 9.58100918197425 2.284366415292066 -11.606754503554383 -12.052784583366847 0.06654842234632559 -69.27627471658057 -8.573970571993623 0.36436052460051765 5.933086544653907 -1.1421786320799585 9.986934595257669 -0.3559977422573848 -12.788588805624615 -7.012181938396028 8.560011169688435 3.6046667350951873 -4.015213274324999 -4.410519606259004 2.1035171866570543 -3.904882191511849 -3.176722013243553 18.07630463697504 4.244545123906797 1.1182963101938865 3.633180186962334 1.9207903936328543 -1.3090236300080298 -2.3174179842688902 1.9036697413777386 -1.1848352003293334 4.565292313484724 -1.2829716981507417 1.192475782549277 0.8219074666162796 -1.479591527741319 -7.048904378134979 0.7579098281442835 -1.2988801515765194 -0.4813885953000227 14.260708268965047 2.886065743181184 1.1100357572960389 -1.626718858048237 -0.3072060118559436 1.0143962068698116 0.5492019436191815 -0.36437258439713077 -4.091572775255947 -0.8404555779197662 -0.4447490858096856 -8.608150774166658 5.160358971589245 -1.6163660678667275 1.1019013508074655 -7.7466025784243655 -2.551934472404524 1.3450839923816005 -9.355435294107105 2.4106625250050944 12.876549501350604 8.276297984983707 0.46870806973415813 65.17049232956325 8.503113461555156 -4.344090303581027 -6.081450043850536 2.358250963471381 7.303389185399905 -7.010861032509114 12.789133746109318 -7.0187724671937595 -8.54844355537283 -3.607166364940773 -4.02097889256444 4.410358896918559 -2.105569851542556 -3.910363354209658 3.176209917296243 -18.073920286338147 4.2404729913672545 -1.106427815496306 -3.634630643571867 1.9142122261680297 1.308930697993474 2.315815562097674 1.8975909438645358 1.1853669524290298 -4.564765772798773 -1.2869329233260607 -1.1801958767910468 -0.8244655896859188 -1.4846737148457276 7.049254634195143 -0.7590022923199642 -1.303464604078743 0.48133891228011455 -14.25920559560607 2.882337500186318 -1.0977122471585898 1.625816546457829 -0.3127814754958312 -1.013734775479364 -0.5517336948157625 -0.3703247096687871 4.090546027326411 0.8563727666245425 -0.4575040590638157 8.595095321276512 -5.1639881040996185 -1.6097349550010434 -1.1028005871028541 7.7413443818947885 -2.54626642345776 -1.3478770389352137 0.8806373535493947 0.5675080329766337 1.4827898441712284 3.8218562711176416 15.957050594577051 2.712230567938601 1.3753232754220461 -9.237614854208365 -6.668839703727189 0 0 0 2.0689915208322356 -2.9552604939638654 -1.9845703632755565 -0.8185153664160553 16.484502346363957 -3.428515653586607 -0.9300447828998356 -8.123512869228147 6.258005448334149 0 0 0
-0.07138095452458673 9.69548159186537 1.2904542130683452 0.6015075689638737 9.29615976858573 0.6106458639265528 -0.04838015084073858 -4.585092029028461 0.08673175914941487 -0.10401832850584786 -12.351961252306323 0.1834429941075099 0 0 0 -1.516584514275653 -0.7942436219951219 -1.3541415915525126 -1.6701580946797174 1.7883016350312275 -1.1523448771751756 0 0 0 0 0 0 9.597071391175366 2.2888373458655495 -11.617932677692487 -11.2777570688565 0.07893061815896836 -69.25502574717204 -8.662945675331963 0.6827000719450825 6.0929623032879805 -0.9904857641406001 10.897729530301955 -0.21248345938976823 -12.788588805624615 -7.0121806480843105 8.560012870939525 3.604667162185754 -4.015214986073792 -4.410517472909375 2.1035184694325397 -3.904883047272161 -3.176720304352951 18.076303009240696 4.244544267785012 1.1182941702970457 3.633179760693949 1.9207899665060373 -1.3090164775008473 -2.31741563701613 1.903670595622851 -1.18483338544655 4.565292313484724 -1.282972658886943 1.1924767430774332 0.8219070930041807 -1.4795927020716217 -7.04890607334148 0.7579107888024236 -1.298880258325654 -0.4813888087907584 14.26070744044965 2.8860646746087832 1.1100367188307068 -1.626716414134908 -0.3072039841143868 1.0143978074674758 0.5492035444035989 -0.3643715438394578 -4.091575330100519 -0.84045173623603 -0.44474527039375866 -8.608152973702623 5.160359396915077 -1.6163670287444143 1.1019033789519026 -7.74660812014053 -2.5519387455105154 1.3450894390905104 -9.367956914542598 2.4147666246171893 12.889012765079427 8.190836253448795 0.6382886707054936 65.1612406078252 8.409606793022139 -4.299644100379101 -6.037562076258209 2.2911331007566087 7.302035216637379 -7.198468765699248 12.789135423867545 -7.018772037083765 -8.54844440603625 -3.607165083663535 -4.020979748444886 4.410359323591583 -2.105568141166347 -3.9103650657414657 3.1762073539423037 -18.07391865859029 4.240472135249982 -1.106423642702811 -3.6346293647737267 1.9142139346687332 1.3089273886370707 2.3158127880783215 1.8975911574250621 1.185367379458682 -4.564765772798773 -1.2869329233260607 -1.1801949162571703 -0.8244660700451472 -1.484673928360818 7.049258024613193 -0.7590028260197753 -1.3034638568334422 0.4813420612741432 -14.259206424124239 2.882337500186318 -1.0977059437590484 1.6258161197364942 -0.3127825960904395 -1.0137316809881702 -0.5517354023195231 -0.37032569686518585 4.090548156367614 0.8563750609580997 -0.4575036321633832 8.595097853912469 -5.1639859774895625 -1.6097380511523893 -1.10280816593119 7.741341841408739 -2.5462649278772536 -1.3478804564590126 1.054791079061634 0.8241754292545179 1.5794828271724983 3.6277768191949735 15.851890431014402 2.686933278870181 1.06225628080974 -9.205916064898926 -6.61084429456345 0 0 0 1.8939742211997888 -2.6403438372279924 -1.8690164381313308 -0.8648701625874495 16.40051046956871 -3.3748500492911635 -0.7809430826531056 -7.998201784031487 6.135515485930439 0 0 0
-0.08257118226005657 9.698010411269792 1.2906305635049922 0.8779399845880016 9.073863060995384 0.640938208475712 -0.053049493114562675 -4.58324966819754 0.11764442051999831 -0.1329625452879396 -12.33387696267544 0.23698825846904364 0 0 0 -1.7820131186326895 -0.782570790816517 -1.2832357244305188 -1.9248654023736211 1.8008239917455546 -1.05964245072243 0 0 0 0 0 0 9.615811779096578 2.2941864598651898 -11.632072185713763 -10.709796581268693 0.10632835725443901 -69.2356656632897 -8.747711549095689 0.8748258901860125 6.216307464798738 -0.8890714402150646 11.508673052134393 -0.0760969323781689 -12.788586289017436 -7.01218322870775 8.560011169688435 3.6046688705480165 -4.015213274324999 -4.410519179589079 2.1035184694325397 -3.904882191511849 -3.176720304352951 18.07630463697504 4.244542983602335 1.1182968451680964 3.633178055620405 1.9207921021401249 -1.3090191463468155 -2.317418411042118 1.9036695278164604 -1.1848321043528192 4.565292313484724 -1.282972658886943 1.192475782549277 0.8219077868552213 -1.4795918480132197 -7.04890819234959 0.7579082804172792 -1.2988801515765194 -0.4813913706795857 14.260709097480436 2.886065743181184 1.1100397102718922 -1.6267200315307868 -0.3072040374760067 1.0143953532177232 0.5492015701028172 -0.36437165056332166 -4.091574904293092 -0.8404582457556895 -0.44475052659612 -8.608147397441105 5.160362799521721 -1.6163657475741655 1.1019007103408007 -7.746600037958895 -2.551938104544616 1.3450861283458817 -9.372514943319667 2.4167185918081007 12.897100671799738 8.128721784700744 0.7806330245892343 65.14023339873361 8.339547696808415 -4.27780745791734 -6.0018112557158085 2.2275417491690495 7.273536544603256 -7.346467360388963 12.789135423867545 -7.018769886533798 -8.548445256699663 -3.6071667920331847 -4.0209793205046624 4.410356763553433 -2.105567499775267 -3.9103629263267066 3.17620543142684 -18.073920286338147 4.240474275543165 -1.1064280294857156 -3.634629791039773 1.914212012605442 1.3089296304591513 2.31581534871157 1.8975909438645358 1.1853649240381792 -4.564764921518543 -1.2869326030801636 -1.1802001458304903 -0.82446623016489 -1.484672860785366 7.049257177008686 -0.7590025591698697 -1.3034636433347848 0.4813379515700714 -14.259206424124239 2.882337500186318 -1.097711071948508 1.6258161197364942 -0.312783583280928 -1.0137316809881702 -0.5517336948157625 -0.3703247096687871 4.090546027326411 0.856371379353088 -0.45750032368503213 8.595091944428514 -5.163981298947391 -1.6097385849715875 -1.1028028287281404 7.741346922380806 -2.5462591592096 -1.3478710582685425 1.3101847276749368 1.0627077383791637 1.640730337981257 3.457728189751247 15.77086140920394 2.6317584408810286 0.6983490151676562 -9.218180757594798 -6.527028836756184 0 0 0 1.7769788881475423 -2.3677713509106257 -1.7887618622501862 -0.8159568577419263 16.34715066211385 -3.337195116003168 -0.5926142467822377 -7.83752998392651 6.013074129656739 0 0 0
-0.09006542783685924 9.700613100472717 1.2935424890304046 1.0898015791256561 8.890900941577925 0.6744656807927786 -0.04895510495224512 -4.58933692869518 0.14505702185065894 -0.15554891554419362 -12.323478100071632 0.2755883172518387 0 0 0 -2.0075410464919488 -0.7772498473132119 -1.218941968108288 -2.1407574944721115 1.8069214631723882 -0.9768697660024563 0 0 0 0 0 0 9.636787627409749 2.3002956377802946 -11.648731690279229 -10.329278930854567 0.14751353271984685 -69.21934434103142 -8.829890517852537 0.9586263429038976 6.304971681589802 -0.833330189825272 11.854310886621532 0.05034479405094925 -12.788586366243898 -7.012179787876501 8.560013721565063 3.6046688705480165 -4.015213274324999 -4.410514912889805 2.1035184694325397 -3.904882191511849 -3.176720304352951 18.07630463697504 4.244544267785012 1.1182951332506246 3.633181039499102 1.9207921021401249 -1.30901957336217 -2.317415423629515 1.9036693142551822 -1.184825378610713 4.565292313484724 -1.2829716981507417 1.192475782549277 0.8219082672136337 -1.4795927020716217 -7.048905225738231 0.7579094545550067 -1.298880258325654 -0.48139057008932745 14.260708268965047 2.8860646746087832 1.1100397102718922 -1.626718538007541 -0.3072029435627986 1.0143981275870084 0.549202904089832 -0.3643715438394578 -4.091573201063377 -0.8404582457556895 -0.4447475382983304 -8.608148241622498 5.160358546263411 -1.616368096386289 1.1019046598852296 -7.74660088478072 -2.551937890889316 1.3450902934762194 -9.370184859345038 2.4167846045376797 12.901004391080738 8.08711829118835 0.898177740481536 65.10966708372202 8.290926694937001 -4.276251390844688 -5.973511731039283 2.1686307332947825 7.221564474698857 -7.458385500166524 12.789135423867545 -7.0187724671937595 -8.54844355537283 -3.6071659378483605 -4.020978036683994 4.410361030283673 -2.1055679273693197 -3.910363354209658 3.176208635619275 -18.073920286338147 4.2404729913672545 -1.1064277085016012 -3.634629791039773 1.914210731229916 1.3089246130478227 2.315814068394947 1.8975911574250621 1.1853691943347031 -4.564766624079 -1.2869326030801636 -1.1801997189265465 -0.8244635615025082 -1.4846740351183632 7.049260986676909 -0.7590022923199642 -1.303462682590827 0.48133997973571785 -14.259204767087892 2.8823364316174205 -1.097707012131854 1.625814199490486 -0.3127824360054955 -1.0137363760782552 -0.5517347086461205 -0.3703246829878034 4.090546027326411 0.8563692984459045 -0.4575009640356806 8.59510038654839 -5.163983850879494 -1.609739332318465 -1.1028046433771794 7.7413435350661075 -2.5462657824946855 -1.3478715922566393 1.5314589622838277 1.2467210272302902 1.700945386855688 3.2901085847707607 15.771223374874602 2.5728440881897754 0.3825162411548771 -9.32864799503176 -6.439007289312556 0 0 0 1.677164557722775 -2.1283044341712998 -1.741119321553132 -0.7993288869961553 16.296248008491542 -3.310621487597353 -0.4686317813456644 -7.748000353062105 5.904376059953263 0 0 0
